<?xml version="1.0" encoding="utf-8"?>
<!-- Generator: Adobe Illustrator 21.0.0, SVG Export Plug-In . SVG Version: 6.00 Build 0)  -->
<svg version="1.1" id="Layer_1" xmlns="http://www.w3.org/2000/svg" xmlns:xlink="http://www.w3.org/1999/xlink" x="0px" y="0px"
	 viewBox="0 0 1080 1080" style="enable-background:new 0 0 1080 1080;" xml:space="preserve">
<style type="text/css">
	.st0{clip-path:url(#SVGID_2_);}
</style>
<g>
	<defs>
		<rect id="SVGID_1_" width="1080" height="1080"/>
	</defs>
	<clipPath id="SVGID_2_">
		<use xlink:href="#SVGID_1_"  style="overflow:visible;"/>
	</clipPath>
	<path class="st0" d="M566.2,387c1.7,0,3.3-0.1,5-0.1c97.5,0,196.7,73.2,242.2,111.7c15,12.7,37.1,11.8,51-2.1l26.9-26.8
		c-6.4-6.4-157.7-156.6-320.2-156.6C408.4,313.1,254.5,469,248,475.6l-24.3,24.9l23.5,25.7c6,6.6,148.6,160.4,319.1,163.4
		c0.6,0,1.1,0,1.7,0c1.1,0,2.1,0,3.2,0v0c73,0,136.5-41.8,167.7-102.7c20.1-39.1-9.2-85.6-53.2-85.6h0c0,63.4-51.8,115-115.4,114.5
		c-1.2,0-2.5-0.1-3.7-0.1c-23.1-0.9-47.6-8.6-71.6-25.2c-5-3.4-9.4-7.8-12.9-12.8C419.8,487.5,481.1,390.6,566.2,387 M328.2,502
		c15.2-13.1,36-29.8,60.4-46.4c-7.3,29.3-7.8,61.3,0.5,94.2C364.1,532.8,343.2,515.5,328.2,502"/>
</g>
</svg>
