<?xml version="1.0" encoding="utf-8"?>
<!-- Generator: Adobe Illustrator 21.0.0, SVG Export Plug-In . SVG Version: 6.00 Build 0)  -->
<svg version="1.1" id="Layer_1" xmlns="http://www.w3.org/2000/svg" xmlns:xlink="http://www.w3.org/1999/xlink" x="0px" y="0px"
	 viewBox="0 0 1080 1080" style="enable-background:new 0 0 1080 1080;" xml:space="preserve">
<style type="text/css">
	.st0{clip-path:url(#SVGID_2_);}
</style>
<g>
	<defs>
		<rect id="SVGID_1_" width="1080" height="1080"/>
	</defs>
	<clipPath id="SVGID_2_">
		<use xlink:href="#SVGID_1_"  style="overflow:visible;"/>
	</clipPath>
	<path class="st0" d="M411.2,575c9.5,9.4,14.3,21.7,14.3,37s-4.6,30.9-13.9,47.1c-9.2,16.2-22.4,30.3-39.4,42.3
		c-17,12-36.5,19.3-58.4,22c1.6,8.9,5.1,18.7,10.3,29.6c5.3,10.9,11.8,20.2,19.6,28.1c7.8,7.9,16.1,12.1,25,12.6
		c1.3,0,1.9,0.5,1.9,1.4c0,1.4-1.3,3.7-3.8,6.7c-2.5,3-5.4,5.6-8.7,7.7c-3.3,2.2-5.9,3.3-7.9,3.3c-10.5-0.2-20.4-4.8-29.8-13.9
		c-9.3-9.1-16.9-20.2-22.7-33.3c-5.8-13.1-9.1-25.4-9.8-36.8c-7.1,14.5-14.8,31.2-23.1,50c-1.6,2.4-4.2,4.1-7.6,5.3
		c-3.4,1.2-7.2,1.8-11.1,1.8c-2.9,0-5.3-0.3-7.3-0.8c-2.4-0.7-3.5-2.4-3.5-5.2c0-1.1,0.3-2.2,0.8-3.3l29.6-58.4
		c-15.9-5.3-28.6-18.4-38-39.4c0-3.1,1-7.2,2.9-12.4c1.9-5.2,3.8-7.7,5.6-7.7c1.1,0,2,1,2.7,3c8,21,19.5,34.8,34.5,41.3
		c25.9-50.2,44.6-85.6,56-106.2l0.3-0.5c-12.1,5.3-24.3,14-36.4,26.1c-3.1,0-5.8-1.6-8.3-4.9c-2.4-3.3-3.7-7-3.7-11.1
		c0-3.3,0.7-6.1,2.2-8.4c12.1-11,25.4-20,39.9-26.8c14.5-6.8,29.7-10.2,45.6-10.2C387.6,560.9,401.6,565.6,411.2,575 M307.8,712.2
		c16.7,0,32-4.9,45.9-14.8c13.9-9.9,25-22.1,33-36.5c8.1-14.5,12.1-28.1,12.1-40.8c0-9.2-2.4-16.8-7.3-22.6
		c-4.9-5.8-12.3-8.8-22.3-9c-10-0.4-19.3,0.8-28,3.5c4.5-0.4,8.4,0.1,11.7,1.4c2.9,1.1,4.3,3.4,4.3,6.8c0,1.6-0.5,3.2-1.4,4.6
		c-24.8,41.7-44.6,77.2-59.2,106.5C300.4,712,304.1,712.2,307.8,712.2"/>
	<path class="st0" d="M382.6,771.3c-3.5-3.5-5.3-8.6-5.3-15.4c0-6.3,1.4-13.7,4.1-22c3.3-10.1,11.1-25.4,23.6-45.6
		c12.5-20.3,22.8-35.1,31-44.3c2.7-2.9,6.1-4.3,10.1-4.3c4,0,7.6,1.2,11,3.5c3.3,2.4,5,5,5,7.9c0,1.5-0.5,2.6-1.4,3.5
		c-12.7,15.2-24.9,32.2-36.7,50.9c-11.8,18.7-17.7,32.5-17.7,41.2c0,2.5,0.5,4.5,1.6,6c1.1,1.5,2.7,2.2,4.9,2.2
		c5.1,0,13.3-6.7,24.7-20.1c11.4-13.4,23.1-28.9,35.2-46.5c12-17.6,21.7-32.3,28.9-44.3c2.2-3.4,5.3-5.2,9.2-5.2
		c3.8,0,7.5,1.4,11.1,4.1c3.6,2.7,5.4,5.5,5.4,8.4c0,1.3-0.4,2.4-1.1,3.3c-12.9,15.8-25.7,34.6-38.4,56.4
		c-12.8,21.8-19.2,36.8-19.2,45c0,3.6,1.4,5.4,4.3,5.4c3.8,0,9.6-4.1,17.5-12.2c7.9-8.2,16-17.8,24.3-28.8
		c8.3-11,14.6-20.3,18.7-27.7c4.2-0.7,7.4,0.7,9.8,4.3c-33.5,53.1-60.5,79.6-81,79.6c-6.9,0-12.2-1.4-15.9-4.3
		c-3.7-2.9-5.6-7.2-5.6-12.8c0-3.8,1.2-9,3.5-15.5c-4.9,7.6-11.9,14.9-20.9,22c-9.1,7.1-17,10.6-23.9,10.6
		C391.9,776.6,386.2,774.9,382.6,771.3"/>
	<path class="st0" d="M525.7,795.2c11.4-9,23.6-15.7,36.7-20.2c2.2-4.2,3.9-9,5.3-14.5c1.4-5.5,2.2-8.8,2.6-9.9
		c-5.8,7.8-12.5,14.1-20.1,18.9c-7.6,4.8-14.5,7.2-20.7,7.2c-8,0-13.7-1.8-17.3-5.3c-3.5-3.5-5.3-8.6-5.3-15.4
		c0-6.3,1.4-13.7,4.1-22c3.3-10.1,11.1-25.4,23.6-45.6c12.5-20.3,22.8-35.1,31-44.3c2.7-2.9,6.1-4.3,10.1-4.3c4,0,7.7,1.2,11,3.5
		c3.3,2.4,5,5,5,7.9c0,1.5-0.5,2.6-1.4,3.5c-12.7,15.2-24.9,32.2-36.7,50.9C541.9,724.3,536,738,536,746.7c0,2.5,0.5,4.5,1.6,6
		c1.1,1.5,2.7,2.2,4.9,2.2c5.1,0,13.3-6.7,24.7-20.1c11.4-13.4,23.1-28.9,35.2-46.5c12-17.6,21.7-32.3,28.9-44.3
		c2.2-3.4,5.3-5.2,9.2-5.2c3.8,0,7.5,1.4,11.1,4.1c3.6,2.7,5.4,5.5,5.4,8.4c0,1.3-0.4,2.4-1.1,3.3c-13,16.1-25.5,34.2-37.2,54.3
		c-11.8,20.1-19.6,37.9-23.4,53.5c11.4-6.7,23-15.4,34.8-26.1c11.8-10.7,21.2-21.8,28.3-33.4c2.2-0.4,3.9-0.1,5.2,0.7
		c1.3,0.8,2.6,2.2,4.1,4.2c-9.8,15.2-21.1,28.5-33.8,39.9c-12.8,11.4-27.5,21.9-44.2,31.5c-7.6,16.8-16.2,31-25.7,42.5
		c-9.5,11.5-18.9,20-28.1,25.4c-9.2,5.4-17.4,8.2-24.5,8.2c-4.7,0-8.4-1.2-11.1-3.7c-2.7-2.4-4.1-5.9-4.1-10.5c0-4,1.2-8.6,3.5-13.9
		C505.7,814.9,514.3,804.2,525.7,795.2 M514,827.2c0,1.4,0.6,2.2,1.9,2.2c2.4,0,6.2-2.1,11.7-6.4c5.4-4.3,11-9.5,16.6-15.6
		c5.6-6.2,9.9-12,12.8-17.4c-8.5,3.1-17.1,8.1-25.7,14.9c-8.6,6.9-13.9,12.6-15.9,17.1C514.4,824,514,825.7,514,827.2"/>
	<path class="st0" d="M636.1,771.3c-3.5-3.5-5.3-8.6-5.3-15.4c0-6.3,1.4-13.7,4.1-22c3.8-12.3,10.9-25.8,21.2-40.5
		c10.3-14.7,21.8-27.1,34.4-37.2c12.6-10.1,24.2-15.2,34.9-15.2c9.4,0,17,4.2,22.8,12.5c0.9-1.4,3.3-4.6,7.1-9.5
		c2.2-2.9,5.4-4.3,9.8-4.3c3.8,0,7.4,1.2,10.9,3.5c3.4,2.4,5.2,5,5.2,7.9c0,1.5-0.4,2.6-1.1,3.5c-12.9,15.8-25.7,34.6-38.4,56.4
		c-12.8,21.8-19.2,36.8-19.2,45c0,3.6,1.4,5.4,4.3,5.4c3.8,0,9.6-4.1,17.5-12.2c7.9-8.2,16-17.8,24.3-28.8
		c8.3-11,14.6-20.3,18.7-27.7c4.2-0.7,7.4,0.7,9.8,4.3c-33.5,53.1-60.5,79.6-81,79.6c-6.9,0-12.2-1.4-15.9-4.3
		c-3.7-2.9-5.6-7.2-5.6-12.8c0-3.8,1.2-9,3.5-15.5c-4.9,7.6-11.9,14.9-20.9,22c-9.1,7.1-17,10.6-23.9,10.6
		C645.4,776.6,639.7,774.9,636.1,771.3 M685.7,739.3c10-11.3,20.3-24.5,31.1-39.4c10.8-14.9,19.1-26.9,24.9-36
		c-1.6-5.4-4.7-8.2-9.2-8.2c-7.1,0-16.5,5.6-28.4,16.8c-11.9,11.2-22.4,24.1-31.7,38.6c-9.2,14.5-13.9,25.8-13.9,34
		c0,5.3,2.3,8.5,6.8,9.8C669,755.8,675.7,750.6,685.7,739.3"/>
	<path class="st0" d="M768.6,779.6c-1.6-1.8-2.4-4.2-2.4-7.1c0-3.6,1.2-6.8,3.7-9.6c2.4-2.8,5.7-4.2,9.6-4.2c3.4,0,6.1,1.1,8,3.3
		c1.9,2.2,2.9,4.8,2.9,7.9c0,3.3-1.3,6.2-3.8,8.7c-2.5,2.5-6.2,3.8-10.9,3.8C772.6,782.3,770.2,781.4,768.6,779.6"/>
	<path class="st0" d="M557.9,526.5c0.2,0,0.4,0,0.6,0c11.5,0,23.3,8.7,28.7,13.2c1.8,1.5,4.4,1.4,6-0.2l3.2-3.2
		c-0.8-0.8-18.7-18.5-37.9-18.5c-19.3,0-37.5,18.4-38.2,19.2l-2.9,3l2.8,3c0.7,0.8,17.6,19,37.8,19.3c0.1,0,0.1,0,0.2,0
		c0.1,0,0.3,0,0.4,0v0c8.6,0,16.1-4.9,19.8-12.1c2.4-4.6-1.1-10.1-6.3-10.1c0,7.5-6.1,13.6-13.6,13.5c-0.1,0-0.3,0-0.4,0
		c-2.7-0.1-5.6-1-8.5-3c-0.6-0.4-1.1-0.9-1.5-1.5C540.6,538.4,547.9,526.9,557.9,526.5 M529.8,540.1c1.8-1.5,4.3-3.5,7.1-5.5
		c-0.9,3.5-0.9,7.3,0.1,11.1C534,543.7,531.6,541.7,529.8,540.1"/>
</g>
</svg>
