<?xml version="1.0" encoding="UTF-8"?> <!-- Generator: Adobe Illustrator 21.0.2, SVG Export Plug-In . SVG Version: 6.00 Build 0) --> <svg xmlns="http://www.w3.org/2000/svg" xmlns:xlink="http://www.w3.org/1999/xlink" id="Capa_1" x="0px" y="0px" viewBox="0 0 512 512" style="enable-background:new 0 0 512 512;" xml:space="preserve"> <style type="text/css"> .st0{fill:#01405C;} .st1{fill:#E5E9EA;} .st2{fill:#D1D1D1;} .st3{fill:#FCB65F;} .st4{fill:#E29A4B;} .st5{fill:#53BCE9;} .st6{fill:#36A6CE;} .st7{fill:#566368;} .st8{fill:#6F7B7F;} .st9{fill:#435054;} </style> <circle class="st0" cx="256" cy="267" r="245"></circle> <path class="st1" d="M124.9,204.7v-62.2c0-5.3-4.3-9.5-9.5-9.5H83.6c-5.3,0-9.5,4.3-9.5,9.5v62.2"></path> <path class="st2" d="M97.1,204.7V133H83.6c-5.3,0-9.5,4.3-9.5,9.5v62.2"></path> <path class="st3" d="M474,216v232.5c0,15.9-12.9,28.9-28.9,28.9H67.9c-15.9,0-28.9-12.9-28.9-28.9V216c0-15.9,12.9-28.9,28.9-28.9 H125c12.3,0,23.3-7.8,27.3-19.4l10.5-30.4c4-11.6,15-19.4,27.3-19.4h168.4c12.3,0,23.2,7.8,27.3,19.4l10.5,30.4 c4,11.6,15,19.4,27.3,19.4h21.6C461.1,187.2,474,200.1,474,216z"></path> <g> <path class="st4" d="M90.5,477.5H67.9c-15.9,0-28.9-12.9-28.9-28.9V216c0-15.9,12.9-28.9,28.9-28.9h20.8v0.1 c-15.1,0.9-27.1,13.5-27.1,28.8v232.5C61.6,464.5,74.6,477.5,90.5,477.5z"></path> <path class="st4" d="M212.7,117.9c-12.3,0-23.3,7.8-27.3,19.4l-10.5,30.4c-4,11.6-15,19.4-27.3,19.4h-19.4V187 c10.9-1.2,20.3-8.6,24-19.2l10.5-30.4c4-11.6,15-19.4,27.3-19.4C190.1,117.9,212.7,117.9,212.7,117.9z"></path> </g> <path class="st5" d="M474,265.7v182.9c0,15.9-12.9,28.9-28.9,28.9H67.9c-15.9,0-28.9-12.9-28.9-28.9V265.7H474z"></path> <path class="st6" d="M90.5,477.5H67.9c-15.9,0-28.9-12.9-28.9-28.9V265.7h22.6v182.9C61.6,464.5,74.6,477.5,90.5,477.5z"></path> <circle class="st1" cx="256.5" cy="330.1" r="120.3"></circle> <path class="st7" d="M341.5,330.1c0,25-10.8,47.6-28.1,63.1c-15.1,13.6-35.1,21.9-57,21.9c-21.9,0-41.9-8.3-57-21.9 c-17.2-15.6-28.1-38.1-28.1-63.1c0-25,10.8-47.6,28.1-63.1c15.1-13.6,35.1-21.9,57-21.9c21.9,0,41.9,8.3,57,21.9 C330.7,282.5,341.5,305.1,341.5,330.1z"></path> <g> <path class="st8" d="M316.6,270c17.7,17.7,26,41.3,24.8,64.5c-23.2,1.2-46.8-7.1-64.5-24.8s-26-41.3-24.8-64.5 C275.4,244,298.9,252.2,316.6,270z"></path> <path class="st8" d="M236,350.6c17.7,17.7,26,41.3,24.8,64.5c-23.2,1.2-46.8-7.1-64.5-24.8c-17.7-17.7-26-41.3-24.8-64.5 C194.8,324.6,218.3,332.8,236,350.6z"></path> </g> <g> <path class="st9" d="M256.5,421.8c-50.6,0-91.7-41.1-91.7-91.7s41.1-91.7,91.7-91.7s91.7,41.1,91.7,91.7S307.1,421.8,256.5,421.8z M256.5,251.7c-43.2,0-78.4,35.2-78.4,78.4s35.2,78.4,78.4,78.4s78.4-35.2,78.4-78.4S299.7,251.7,256.5,251.7z"></path> <path class="st9" d="M256.5,296c-18.8,0-34.1,15.3-34.1,34.1c0,18.8,15.3,34.1,34.1,34.1s34.1-15.3,34.1-34.1 C290.6,311.3,275.3,296,256.5,296z"></path> </g> <path class="st1" d="M299.7,180.5H352c6.9,0,12.5-5.6,12.5-12.5v-13.7c0-6.9-5.6-12.5-12.5-12.5h-52.3c-6.9,0-12.5,5.6-12.5,12.5 v13.7C287.3,174.9,292.8,180.5,299.7,180.5z"></path> <path class="st4" d="M352,187.2h-52.3c-10.5,0-19.1-8.6-19.1-19.1v-13.7c0-10.5,8.6-19.1,19.1-19.1H352c10.5,0,19.1,8.6,19.1,19.1 v13.7C371.1,178.6,362.6,187.2,352,187.2z M299.7,148.6c-3.2,0-5.8,2.6-5.8,5.8v13.7c0,3.2,2.6,5.8,5.8,5.8H352 c3.2,0,5.8-2.6,5.8-5.8v-13.7c0-3.2-2.6-5.8-5.8-5.8C352,148.6,299.7,148.6,299.7,148.6z"></path> <circle class="st7" cx="121.7" cy="428.7" r="24.1"></circle> </svg> 